Facade[wght].ufo
<glyph name="D" format="2">
  <advance width="960"/>
  <unicode hex="0044"/>
  <anchor x="407" y="0" name="bottom"/>
  <anchor x="179" y="480" name="center"/>
  <anchor x="407" y="914" name="top"/>
  <outline>
    <contour>
      <point x="126" y="0" type="line"/>
      <point x="421" y="0" type="line" smooth="yes"/>
      <point x="747" y="0"/>
      <point x="900" y="240"/>
      <point x="900" y="450" type="curve" smooth="yes"/>
      <point x="900" y="660"/>
      <point x="747" y="900"/>
      <point x="421" y="900" type="curve" smooth="yes"/>
      <point x="126" y="900" type="line"/>
    </contour>
    <contour>
      <point x="240" y="102" type="line"/>
      <point x="240" y="798" type="line"/>
      <point x="409" y="798" type="line" smooth="yes"/>
      <point x="685" y="798"/>
      <point x="782" y="600"/>
      <point x="782" y="450" type="curve" smooth="yes"/>
      <point x="782" y="300"/>
      <point x="685" y="102"/>
      <point x="409" y="102" type="curve" smooth="yes"/>
    </contour>
  </outline>
</glyph>
<glyph name="J" format="2">
  <advance width="540"/>
  <unicode hex="004A"/>
  <anchor x="156" y="0" name="bottom"/>
  <anchor x="375" y="900" name="top"/>
  <outline>
    <contour>
      <point x="188" y="-12" type="curve" smooth="yes"/>
      <point x="317" y="-12"/>
      <point x="432" y="68"/>
      <point x="432" y="247" type="curve" smooth="yes"/>
      <point x="432" y="900" type="line"/>
      <point x="318" y="900" type="line"/>
      <point x="318" y="256" type="line" smooth="yes"/>
      <point x="318" y="133"/>
      <point x="257" y="90"/>
      <point x="187" y="90" type="curve" smooth="yes"/>
      <point x="125" y="90"/>
      <point x="75" y="122"/>
      <point x="45" y="174" type="curve"/>
      <point x="12" y="54" type="line"/>
      <point x="57" y="6"/>
      <point x="124" y="-12"/>
    </contour>
  </outline>
</glyph>
<glyph name="M" format="2">
  <advance width="1080"/>
  <unicode hex="004D"/>
  <outline>
    <contour>
      <point x="126" y="0" type="line"/>
      <point x="234" y="0" type="line"/>
      <point x="234" y="416" type="line" smooth="yes"/>
      <point x="234" y="470"/>
      <point x="234" y="533"/>
      <point x="226" y="616" type="curve"/>
      <point x="269" y="542"/>
      <point x="307" y="489"/>
      <point x="340" y="443" type="curve" smooth="yes"/>
      <point x="540" y="168" type="line"/>
      <point x="734" y="443" type="line" smooth="yes"/>
      <point x="766" y="489"/>
      <point x="806" y="542"/>
      <point x="848" y="616" type="curve"/>
      <point x="840" y="533"/>
      <point x="840" y="470"/>
      <point x="840" y="416" type="curve" smooth="yes"/>
      <point x="840" y="0" type="line"/>
      <point x="954" y="0" type="line"/>
      <point x="954" y="930" type="line"/>
      <point x="544" y="354" type="line"/>
      <point x="126" y="930" type="line"/>
    </contour>
  </outline>
</glyph>
<glyph name="s" format="2">
  <advance width="510"/>
  <unicode hex="0073"/>
  <anchor x="255" y="0" name="bottom"/>
  <anchor x="258" y="600" name="top"/>
  <outline>
    <contour>
      <point x="251" y="-12" type="curve" smooth="yes"/>
      <point x="366" y="-12"/>
      <point x="450" y="61"/>
      <point x="450" y="169" type="curve" smooth="yes"/>
      <point x="450" y="284"/>
      <point x="357" y="322"/>
      <point x="313" y="339" type="curve" smooth="yes"/>
      <point x="232" y="370" type="line" smooth="yes"/>
      <point x="189" y="386"/>
      <point x="168" y="412"/>
      <point x="168" y="444" type="curve" smooth="yes"/>
      <point x="168" y="484"/>
      <point x="201" y="520"/>
      <point x="256" y="520" type="curve" smooth="yes"/>
      <point x="315" y="520"/>
      <point x="374" y="482"/>
      <point x="406" y="424" type="curve"/>
      <point x="436" y="542" type="line"/>
      <point x="391" y="592"/>
      <point x="319" y="612"/>
      <point x="259" y="612" type="curve" smooth="yes"/>
      <point x="145" y="612"/>
      <point x="72" y="533"/>
      <point x="72" y="437" type="curve" smooth="yes"/>
      <point x="72" y="330"/>
      <point x="157" y="291"/>
      <point x="202" y="274" type="curve" smooth="yes"/>
      <point x="283" y="243" type="line" smooth="yes"/>
      <point x="310" y="233"/>
      <point x="354" y="213"/>
      <point x="354" y="161" type="curve" smooth="yes"/>
      <point x="354" y="116"/>
      <point x="322" y="80"/>
      <point x="258" y="80" type="curve" smooth="yes"/>
      <point x="191" y="80"/>
      <point x="129" y="119"/>
      <point x="92" y="182" type="curve"/>
      <point x="62" y="64" type="line"/>
      <point x="113" y="9"/>
      <point x="189" y="-12"/>
    </contour>
  </outline>
</glyph>
<glyph name="z" format="2">
  <advance width="530"/>
  <unicode hex="007A"/>
  <anchor x="257" y="0" name="bottom"/>
  <anchor x="265" y="300" name="center"/>
  <anchor x="274" y="600" name="top"/>
  <outline>
    <contour>
      <point x="195" y="76" type="line"/>
      <point x="178" y="96" type="line"/>
      <point x="474" y="96" type="line"/>
      <point x="474" y="0" type="line"/>
      <point x="40" y="0" type="line"/>
      <point x="335" y="524" type="line"/>
      <point x="352" y="504" type="line"/>
      <point x="58" y="504" type="line"/>
      <point x="58" y="600" type="line"/>
      <point x="490" y="600" type="line"/>
    </contour>
  </outline>
</glyph>
<glyph name="ordfeminine" format="2">
  <advance width="480"/>
  <unicode hex="00AA"/>
  <outline>
    <contour>
      <point x="222" y="412" type="curve" smooth="yes"/>
      <point x="284" y="412"/>
      <point x="336" y="444"/>
      <point x="362" y="503" type="curve"/>
      <point x="336" y="508" type="line"/>
      <point x="336" y="420" type="line"/>
      <point x="420" y="420" type="line"/>
      <point x="420" y="780" type="line"/>
      <point x="336" y="780" type="line"/>
      <point x="336" y="692" type="line"/>
      <point x="362" y="697" type="line"/>
      <point x="336" y="756"/>
      <point x="284" y="788"/>
      <point x="222" y="788" type="curve" smooth="yes"/>
      <point x="123" y="788"/>
      <point x="42" y="704"/>
      <point x="42" y="600" type="curve" smooth="yes"/>
      <point x="42" y="496"/>
      <point x="122" y="412"/>
    </contour>
    <contour>
      <point x="234" y="490" type="curve" smooth="yes"/>
      <point x="174" y="490"/>
      <point x="126" y="539"/>
      <point x="126" y="600" type="curve" smooth="yes"/>
      <point x="126" y="661"/>
      <point x="174" y="710"/>
      <point x="234" y="710" type="curve" smooth="yes"/>
      <point x="294" y="710"/>
      <point x="342" y="661"/>
      <point x="342" y="600" type="curve" smooth="yes"/>
      <point x="342" y="539"/>
      <point x="294" y="490"/>
    </contour>
  </outline>
</glyph>
<glyph name="AE" format="2">
  <advance width="1020"/>
  <unicode hex="00C6"/>
  <anchor x="400" y="0" name="bottom"/>
  <anchor x="681" y="0" name="ogonek"/>
  <anchor x="400" y="900" name="top"/>
  <anchor x="120" y="720" name="top-vertical"/>
  <anchor x="461" y="900" name="topleft"/>
  <outline>
    <contour>
      <point x="18" y="0" type="line"/>
      <point x="133" y="0" type="line"/>
      <point x="349" y="540" type="line"/>
      <point x="370" y="594"/>
      <point x="392" y="647"/>
      <point x="413" y="713" type="curve"/>
      <point x="429" y="647"/>
      <point x="446" y="594"/>
      <point x="462" y="540" type="curve"/>
      <point x="627" y="0" type="line"/>
      <point x="990" y="0" type="line"/>
      <point x="990" y="102" type="line"/>
      <point x="710" y="102" type="line"/>
      <point x="587" y="504" type="line"/>
      <point x="816" y="504" type="line"/>
      <point x="816" y="606" type="line"/>
      <point x="556" y="606" type="line"/>
      <point x="497" y="798" type="line"/>
      <point x="786" y="798" type="line"/>
      <point x="786" y="900" type="line"/>
      <point x="388" y="900" type="line"/>
    </contour>
    <contour>
      <point x="211" y="267" type="line"/>
      <point x="583" y="267" type="line"/>
      <point x="548" y="362" type="line"/>
      <point x="247" y="362" type="line"/>
    </contour>
  </outline>
</glyph>
<glyph name="eth" format="2">
  <advance width="740"/>
  <unicode hex="00F0"/>
  <anchor x="370" y="0" name="bottom"/>
  <anchor x="667" y="10" name="ogonek"/>
  <anchor x="370" y="600" name="top"/>
  <outline>
    <contour>
      <point x="371" y="-12" type="curve" smooth="yes"/>
      <point x="547" y="-12"/>
      <point x="686" y="124"/>
      <point x="686" y="310" type="curve" smooth="yes"/>
      <point x="686" y="397"/>
      <point x="657" y="485"/>
      <point x="589" y="591" type="curve" smooth="yes"/>
      <point x="538" y="668"/>
      <point x="408" y="836"/>
      <point x="301" y="960" type="curve"/>
      <point x="178" y="960" type="line"/>
      <point x="300" y="819"/>
      <point x="421" y="677"/>
      <point x="515" y="536" type="curve"/>
      <point x="520" y="536" type="line"/>
      <point x="475" y="586"/>
      <point x="416" y="606"/>
      <point x="350" y="606" type="curve" smooth="yes"/>
      <point x="187" y="606"/>
      <point x="54" y="470"/>
      <point x="54" y="301" type="curve" smooth="yes"/>
      <point x="54" y="127"/>
      <point x="194" y="-12"/>
    </contour>
    <contour>
      <point x="369" y="90" type="curve" smooth="yes"/>
      <point x="254" y="90"/>
      <point x="162" y="185"/>
      <point x="162" y="301" type="curve" smooth="yes"/>
      <point x="162" y="416"/>
      <point x="254" y="510"/>
      <point x="369" y="510" type="curve" smooth="yes"/>
      <point x="485" y="510"/>
      <point x="578" y="416"/>
      <point x="578" y="301" type="curve" smooth="yes"/>
      <point x="578" y="185"/>
      <point x="485" y="90"/>
    </contour>
    <contour>
      <point x="208" y="672" type="line"/>
      <point x="543" y="891" type="line"/>
      <point x="505" y="950" type="line"/>
      <point x="170" y="732" type="line"/>
    </contour>
  </outline>
</glyph>
<glyph name="idotless" format="2">
  <advance width="300"/>
  <unicode hex="0131"/>
  <anchor x="150" y="0" name="bottom"/>
  <anchor x="150" y="0" name="ogonek"/>
  <anchor x="150" y="600" name="top"/>
  <outline>
    <contour>
      <point x="96" y="0" type="line"/>
      <point x="204" y="0" type="line"/>
      <point x="204" y="600" type="line"/>
      <point x="96" y="600" type="line"/>
    </contour>
  </outline>
</glyph>
<glyph name="ohorn" format="2">
  <advance width="770"/>
  <unicode hex="01A1"/>
  <anchor x="370" y="0" name="bottom"/>
  <anchor x="370" y="600" name="top"/>
  <outline>
    <contour>
      <point x="370" y="-12" type="curve" smooth="yes"/>
      <point x="545" y="-12"/>
      <point x="686" y="127"/>
      <point x="686" y="300" type="curve" smooth="yes"/>
      <point x="686" y="473"/>
      <point x="545" y="612"/>
      <point x="370" y="612" type="curve" smooth="yes"/>
      <point x="195" y="612"/>
      <point x="54" y="473"/>
      <point x="54" y="300" type="curve" smooth="yes"/>
      <point x="54" y="127"/>
      <point x="195" y="-12"/>
    </contour>
    <contour>
      <point x="370" y="90" type="curve" smooth="yes"/>
      <point x="254" y="90"/>
      <point x="162" y="184"/>
      <point x="162" y="300" type="curve" smooth="yes"/>
      <point x="162" y="416"/>
      <point x="254" y="510"/>
      <point x="370" y="510" type="curve" smooth="yes"/>
      <point x="485" y="510"/>
      <point x="578" y="416"/>
      <point x="578" y="300" type="curve" smooth="yes"/>
      <point x="578" y="184"/>
      <point x="485" y="90"/>
    </contour>
    <contour>
      <point x="596" y="398" type="line"/>
      <point x="675" y="398"/>
      <point x="746" y="458"/>
      <point x="746" y="568" type="curve" smooth="yes"/>
      <point x="746" y="597"/>
      <point x="741" y="628"/>
      <point x="722" y="660" type="curve"/>
      <point x="632" y="660" type="line"/>
      <point x="651" y="627"/>
      <point x="656" y="592"/>
      <point x="656" y="568" type="curve" smooth="yes"/>
      <point x="656" y="503"/>
      <point x="619" y="476"/>
      <point x="578" y="476" type="curve"/>
    </contour>
  </outline>
</glyph>
<glyph name="breveinvertedcomb" format="2">
  <unicode hex="0311"/>
  <anchor x="360" y="600" name="_top"/>
  <anchor x="360" y="849" name="top"/>
  <outline>
    <contour>
      <point x="180" y="675" type="curve"/>
      <point x="276" y="675" type="line"/>
      <point x="276" y="722"/>
      <point x="315" y="759"/>
      <point x="360" y="759" type="curve" smooth="yes"/>
      <point x="405" y="759"/>
      <point x="444" y="722"/>
      <point x="444" y="675" type="curve"/>
      <point x="540" y="675" type="line"/>
      <point x="540" y="774"/>
      <point x="460" y="849"/>
      <point x="360" y="849" type="curve" smooth="yes"/>
      <point x="259" y="849"/>
      <point x="180" y="775"/>
    </contour>
  </outline>
</glyph>
<glyph name="strokelongcomb" format="2">
  <unicode hex="0336"/>
  <anchor x="400" y="450" name="_center"/>
  <outline>
    <contour>
      <point x="30" y="408" type="line"/>
      <point x="770" y="408" type="line"/>
      <point x="770" y="492" type="line"/>
      <point x="30" y="492" type="line"/>
    </contour>
  </outline>
</glyph>
<glyph name="quoteleft" format="2">
  <advance width="270"/>
  <unicode hex="2018"/>
  <outline>
    <contour>
      <point x="56" y="600" type="curve"/>
      <point x="164" y="600" type="line"/>
      <point x="164" y="728"/>
      <point x="204" y="826"/>
      <point x="264" y="900" type="curve"/>
      <point x="144" y="900" type="line"/>
      <point x="89" y="815"/>
      <point x="56" y="714"/>
    </contour>
  </outline>
</glyph>
<glyph name="dagger" format="2">
  <advance width="600"/>
  <unicode hex="2020"/>
  <outline>
    <contour>
      <point x="246" y="0" type="line"/>
      <point x="354" y="0" type="line"/>
      <point x="347" y="654" type="line"/>
      <point x="306" y="588" type="line"/>
      <point x="528" y="585" type="line"/>
      <point x="528" y="675" type="line"/>
      <point x="347" y="672" type="line"/>
      <point x="354" y="900" type="line"/>
      <point x="246" y="900" type="line"/>
      <point x="253" y="672" type="line"/>
      <point x="72" y="675" type="line"/>
      <point x="72" y="585" type="line"/>
      <point x="294" y="588" type="line"/>
      <point x="253" y="654" type="line"/>
    </contour>
  </outline>
</glyph>
<glyph name="euro" format="2">
  <advance width="750"/>
  <unicode hex="20AC"/>
  <outline>
    <contour>
      <point x="502" y="-12" type="curve" smooth="yes"/>
      <point x="579" y="-12"/>
      <point x="641" y="19"/>
      <point x="690" y="70" type="curve"/>
      <point x="656" y="209" type="line"/>
      <point x="623" y="139"/>
      <point x="573" y="90"/>
      <point x="502" y="90" type="curve" smooth="yes"/>
      <point x="362" y="90"/>
      <point x="301" y="282"/>
      <point x="301" y="450" type="curve" smooth="yes"/>
      <point x="301" y="618"/>
      <point x="362" y="810"/>
      <point x="502" y="810" type="curve" smooth="yes"/>
      <point x="572" y="810"/>
      <point x="623" y="761"/>
      <point x="656" y="692" type="curve"/>
      <point x="690" y="830" type="line"/>
      <point x="641" y="881"/>
      <point x="579" y="912"/>
      <point x="502" y="912" type="curve" smooth="yes"/>
      <point x="291" y="912"/>
      <point x="187" y="677"/>
      <point x="187" y="450" type="curve" smooth="yes"/>
      <point x="187" y="223"/>
      <point x="291" y="-12"/>
    </contour>
    <contour>
      <point x="90" y="318" type="line"/>
      <point x="540" y="318" type="line"/>
      <point x="540" y="402" type="line"/>
      <point x="90" y="402" type="line"/>
    </contour>
    <contour>
      <point x="90" y="498" type="line"/>
      <point x="540" y="498" type="line"/>
      <point x="540" y="582" type="line"/>
      <point x="90" y="582" type="line"/>
    </contour>
  </outline>
</glyph>
<glyph name="c.001" format="2">
  <advance width="630"/>
  <anchor x="371" y="0" name="bottom"/>
  <anchor x="371" y="600" name="top"/>
  <outline>
    <contour>
      <point x="372" y="-12" type="curve" smooth="yes"/>
      <point x="459" y="-12"/>
      <point x="537" y="21"/>
      <point x="594" y="72" type="curve"/>
      <point x="561" y="208" type="line"/>
      <point x="527" y="139"/>
      <point x="456" y="90"/>
      <point x="371" y="90" type="curve" smooth="yes"/>
      <point x="255" y="90"/>
      <point x="162" y="185"/>
      <point x="162" y="300" type="curve" smooth="yes"/>
      <point x="162" y="415"/>
      <point x="255" y="510"/>
      <point x="371" y="510" type="curve" smooth="yes"/>
      <point x="456" y="510"/>
      <point x="527" y="459"/>
      <point x="561" y="392" type="curve"/>
      <point x="594" y="528" type="line"/>
      <point x="537" y="579"/>
      <point x="459" y="612"/>
      <point x="372" y="612" type="curve" smooth="yes"/>
      <point x="196" y="612"/>
      <point x="54" y="472"/>
      <point x="54" y="300" type="curve" smooth="yes"/>
      <point x="54" y="128"/>
      <point x="196" y="-12"/>
    </contour>
  </outline>
</glyph>
<glyph name="cent.BRACKET.150" format="2">
  <advance width="750"/>
  <outline>
    <contour>
      <point x="432" y="138" type="curve" smooth="yes"/>
      <point x="519" y="138"/>
      <point x="597" y="171"/>
      <point x="654" y="222" type="curve"/>
      <point x="621" y="358" type="line"/>
      <point x="587" y="289"/>
      <point x="516" y="240"/>
      <point x="431" y="240" type="curve" smooth="yes"/>
      <point x="315" y="240"/>
      <point x="222" y="335"/>
      <point x="222" y="450" type="curve" smooth="yes"/>
      <point x="222" y="565"/>
      <point x="315" y="660"/>
      <point x="431" y="660" type="curve" smooth="yes"/>
      <point x="516" y="660"/>
      <point x="587" y="609"/>
      <point x="621" y="542" type="curve"/>
      <point x="654" y="678" type="line"/>
      <point x="597" y="729"/>
      <point x="519" y="762"/>
      <point x="432" y="762" type="curve" smooth="yes"/>
      <point x="256" y="762"/>
      <point x="114" y="622"/>
      <point x="114" y="450" type="curve" smooth="yes"/>
      <point x="114" y="278"/>
      <point x="256" y="138"/>
    </contour>
    <contour>
      <point x="378" y="0" type="line"/>
      <point x="462" y="0" type="line"/>
      <point x="462" y="180" type="line"/>
      <point x="378" y="180" type="line"/>
    </contour>
    <contour>
      <point x="378" y="720" type="line"/>
      <point x="462" y="720" type="line"/>
      <point x="462" y="870" type="line"/>
      <point x="378" y="870" type="line"/>
    </contour>
  </outline>
</glyph>
<glyph name="d.croat" format="2">
  <advance width="760"/>
  <anchor x="371" y="0" name="bottom"/>
  <anchor x="610" y="780" name="center"/>
  <anchor x="668" y="10" name="ogonek"/>
  <anchor x="371" y="600" name="top"/>
  <anchor x="664" y="960" name="topright"/>
  <outline>
    <contour>
      <point x="353" y="-8" type="curve" smooth="yes"/>
      <point x="458" y="-8"/>
      <point x="549" y="45"/>
      <point x="602" y="125" type="curve"/>
      <point x="564" y="150" type="line"/>
      <point x="564" y="0" type="line"/>
      <point x="664" y="0" type="line"/>
      <point x="664" y="960" type="line"/>
      <point x="562" y="960" type="line"/>
      <point x="562" y="453" type="line"/>
      <point x="602" y="476" type="line"/>
      <point x="550" y="554"/>
      <point x="458" y="608"/>
      <point x="353" y="608" type="curve" smooth="yes"/>
      <point x="188" y="608"/>
      <point x="54" y="470"/>
      <point x="54" y="300" type="curve" smooth="yes"/>
      <point x="54" y="130"/>
      <point x="188" y="-8"/>
    </contour>
    <contour>
      <point x="367" y="90" type="curve" smooth="yes"/>
      <point x="253" y="90"/>
      <point x="162" y="184"/>
      <point x="162" y="300" type="curve" smooth="yes"/>
      <point x="162" y="416"/>
      <point x="253" y="510"/>
      <point x="367" y="510" type="curve" smooth="yes"/>
      <point x="481" y="510"/>
      <point x="572" y="416"/>
      <point x="572" y="300" type="curve" smooth="yes"/>
      <point x="572" y="184"/>
      <point x="481" y="90"/>
    </contour>
  </outline>
</glyph>
<glyph name="dieresiscomb_macroncomb" format="2">
  <anchor x="360" y="600" name="_top"/>
  <outline>
    <contour>
      <point x="240" y="711" type="curve" smooth="yes"/>
      <point x="279" y="711"/>
      <point x="309" y="742"/>
      <point x="309" y="780" type="curve" smooth="yes"/>
      <point x="309" y="819"/>
      <point x="279" y="849"/>
      <point x="240" y="849" type="curve" smooth="yes"/>
      <point x="202" y="849"/>
      <point x="171" y="819"/>
      <point x="171" y="780" type="curve" smooth="yes"/>
      <point x="171" y="742"/>
      <point x="202" y="711"/>
    </contour>
    <contour>
      <point x="480" y="711" type="curve" smooth="yes"/>
      <point x="519" y="711"/>
      <point x="549" y="742"/>
      <point x="549" y="780" type="curve" smooth="yes"/>
      <point x="549" y="819"/>
      <point x="519" y="849"/>
      <point x="480" y="849" type="curve" smooth="yes"/>
      <point x="442" y="849"/>
      <point x="411" y="819"/>
      <point x="411" y="780" type="curve" smooth="yes"/>
      <point x="411" y="742"/>
      <point x="442" y="711"/>
    </contour>
    <contour>
      <point x="189" y="921" type="line"/>
      <point x="531" y="921" type="line"/>
      <point x="531" y="999" type="line"/>
      <point x="189" y="999" type="line"/>
    </contour>
  </outline>
</glyph>
<glyph name="five.lf" format="2">
  <advance width="690"/>
  <outline>
    <contour>
      <point x="312" y="-12" type="curve" smooth="yes"/>
      <point x="480" y="-12"/>
      <point x="622" y="121"/>
      <point x="622" y="293" type="curve" smooth="yes"/>
      <point x="622" y="464"/>
      <point x="486" y="592"/>
      <point x="325" y="592" type="curve" smooth="yes"/>
      <point x="298" y="592"/>
      <point x="269" y="588"/>
      <point x="242" y="576" type="curve"/>
      <point x="242" y="798" type="line"/>
      <point x="538" y="798" type="line"/>
      <point x="538" y="900" type="line"/>
      <point x="144" y="900" type="line"/>
      <point x="144" y="413" type="line"/>
      <point x="181" y="463"/>
      <point x="242" y="496"/>
      <point x="309" y="496" type="curve" smooth="yes"/>
      <point x="423" y="496"/>
      <point x="514" y="404"/>
      <point x="514" y="293" type="curve" smooth="yes"/>
      <point x="514" y="181"/>
      <point x="423" y="90"/>
      <point x="312" y="90" type="curve" smooth="yes"/>
      <point x="208" y="90"/>
      <point x="122" y="166"/>
      <point x="108" y="269" type="curve"/>
      <point x="42" y="138" type="line"/>
      <point x="97" y="45"/>
      <point x="197" y="-12"/>
    </contour>
  </outline>
</glyph>
<glyph name="parenleft.titl" format="2">
  <advance width="480"/>
  <outline>
    <contour>
      <point x="298" y="-180" type="curve"/>
      <point x="366" y="-180" type="line"/>
      <point x="257" y="-19"/>
      <point x="196" y="176"/>
      <point x="196" y="390" type="curve" smooth="yes"/>
      <point x="196" y="604"/>
      <point x="257" y="799"/>
      <point x="366" y="960" type="curve"/>
      <point x="298" y="960" type="line"/>
      <point x="197" y="793"/>
      <point x="138" y="598"/>
      <point x="138" y="390" type="curve" smooth="yes"/>
      <point x="138" y="182"/>
      <point x="197" y="-13"/>
    </contour>
  </outline>
</glyph>
<glyph name="plus.titl" format="2">
  <advance width="750"/>
  <outline>
    <contour>
      <point x="348" y="135" type="line"/>
      <point x="402" y="135" type="line"/>
      <point x="402" y="765" type="line"/>
      <point x="348" y="765" type="line"/>
    </contour>
    <contour>
      <point x="60" y="424" type="line"/>
      <point x="690" y="424" type="line"/>
      <point x="690" y="476" type="line"/>
      <point x="60" y="476" type="line"/>
    </contour>
  </outline>
</glyph>
<glyph name="three.numr" format="2">
  <advance width="480"/>
  <outline>
    <contour>
      <point x="219" y="408" type="curve" smooth="yes"/>
      <point x="324" y="408"/>
      <point x="402" y="486"/>
      <point x="402" y="585" type="curve" smooth="yes"/>
      <point x="402" y="673"/>
      <point x="337" y="743"/>
      <point x="255" y="749" type="curve"/>
      <point x="258" y="708" type="line"/>
      <point x="366" y="900" type="line"/>
      <point x="85" y="900" type="line"/>
      <point x="85" y="820" type="line"/>
      <point x="237" y="820" type="line"/>
      <point x="153" y="663" type="line"/>
      <point x="172" y="673"/>
      <point x="193" y="680"/>
      <point x="220" y="680" type="curve" smooth="yes"/>
      <point x="274" y="680"/>
      <point x="316" y="640"/>
      <point x="316" y="584" type="curve" smooth="yes"/>
      <point x="316" y="528"/>
      <point x="275" y="488"/>
      <point x="220" y="488" type="curve" smooth="yes"/>
      <point x="161" y="488"/>
      <point x="118" y="525"/>
      <point x="110" y="580" type="curve"/>
      <point x="62" y="489" type="line"/>
      <point x="96" y="439"/>
      <point x="155" y="408"/>
    </contour>
  </outline>
</glyph>
